<svg xmlns="http://www.w3.org/2000/svg" id="Layer_2" data-name="Layer 2" viewBox="0 0 465.4 465.4"><defs><style>.cls-1{fill:#fff;stroke-width:0}</style></defs><g id="Layer_1-2" data-name="Layer 1"><circle cx="232.7" cy="233" r="153" class="cls-1"/><path d="M232.7 20a211.3 211.3 0 0 1 150.4 62.3 212 212 0 0 1 62.3 150.4 211.3 211.3 0 0 1-62.3 150.4 212 212 0 0 1-150.4 62.3 211.3 211.3 0 0 1-150.4-62.3A212 212 0 0 1 20 232.7 211.3 211.3 0 0 1 82.3 82.3 212 212 0 0 1 232.7 20m0-20a232.7 232.7 0 1 0 0 465.4 232.7 232.7 0 0 0 0-465.4Z" class="cls-1"/></g></svg>